<?xml version="1.0" encoding="UTF-8" standalone="no"?>
<!-- Created with Inkscape (http://www.inkscape.org/) -->

<svg
   version="1.1"
   id="svg9"
   width="902.67377"
   height="588.76758"
   viewBox="0 0 902.67377 588.76758"
   sodipodi:docname="622db4e5-da5b-43a5-9d8b-1ae93a1ed5e6.webp"
   inkscape:export-filename="logo_white.svg"
   inkscape:export-xdpi="96"
   inkscape:export-ydpi="96"
   xmlns:inkscape="http://www.inkscape.org/namespaces/inkscape"
   xmlns:sodipodi="http://sodipodi.sourceforge.net/DTD/sodipodi-0.dtd"
   xmlns="http://www.w3.org/2000/svg"
   xmlns:svg="http://www.w3.org/2000/svg">
  <defs
     id="defs13" />
  <sodipodi:namedview
     id="namedview11"
     pagecolor="#ffffff"
     bordercolor="#666666"
     borderopacity="1.0"
     inkscape:showpageshadow="2"
     inkscape:pageopacity="0.0"
     inkscape:pagecheckerboard="0"
     inkscape:deskcolor="#d1d1d1"
     showgrid="false" />
  <g
     inkscape:groupmode="layer"
     inkscape:label="Image"
     id="g15"
     transform="translate(262.67377,365.76755)">
    <path
       id="path408"
       style="fill:#ffffff;fill-opacity:1;stroke:none;stroke-width:0.643059px;stroke-linecap:round;stroke-linejoin:miter;stroke-opacity:1"
       d="m 233.13273,34.967371 c -9.4104,-0.02109 -19.91943,18.843091 -12.20197,23.393498 0.82002,0.483503 2.95396,-0.45272 4.00258,-1.400569 0.93919,-0.848928 2.46075,-3.737709 2.46075,-3.737709 1.46881,1.722009 3.08943,3.07995 6.02827,1.276838 0,0 -0.15584,3.839268 1.06231,5.057086 1.30979,1.309435 5.83026,1.739416 6.91593,-0.914648 4.33023,-10.585875 0.60049,-21.014373 -8.26787,-23.674496 z m -2.17033,3.972651 c 2.8165,-1.16e-4 5.09965,3.682168 5.09926,8.224118 -4e-5,4.541462 -2.28306,8.222981 -5.09926,8.222865 -2.81619,1.16e-4 -5.09921,-3.681403 -5.09925,-8.222865 -3.9e-4,-4.54195 2.28276,-8.224234 5.09925,-8.224118 z"
       sodipodi:nodetypes="cssccsscccccc" />
    <path
       id="path410"
       style="fill:#ffffff;fill-opacity:1;stroke:none;stroke-width:0.643059px;stroke-linecap:round;stroke-linejoin:miter;stroke-opacity:1"
       d="m 236.32766,100.80032 -15.82026,1.1982 3.67247,3.51924 c -0.68042,1.43872 -3.22535,0.93319 -5.87294,0.32153 -0.65518,-0.52752 -1.28599,-1.07017 -1.86637,-1.64533 -4.22264,5.90532 -8.19041,11.98232 -8.74284,20.36688 1.53214,14.64914 16.47697,23.8625 25.50507,35.47374 l 6.99452,-3.81565 -0.97464,-1.74706 c 4.25234,-8.97351 10.35326,-17.88822 10.64313,-26.98837 0.69832,-11.82122 -0.18369,-22.03809 -6.80487,-26.43324 l -3.45393,3.40871 c -5.19347,3.72245 -5.78152,-0.33552 -3.27934,-3.65865 z m -8.06964,8.62101 c 1.68009,10.48104 1.3581,21.59963 2.02588,32.40288 -1.5066,-1.47588 -2.96006,-3.42913 -4.21755,-7.14147 0.70025,-8.45213 0.52606,-17.82647 2.19167,-25.26141 z" />
    <path
       style="fill:none;stroke:#ffffff;stroke-width:1.28612;stroke-linecap:round;stroke-linejoin:miter;stroke-dasharray:none;stroke-opacity:1"
       d="m 221.41967,101.87262 -3.14958,-31.285697 -5.16885,11.854518 4.15897,16.44433 -3.14206,2.364209 c -3.24727,-0.96973 -12.77019,-3.196749 -13.57714,-17.659279 -0.92397,-15.313671 8.20497,-21.56738 19.18716,-26.150885 5.93624,9.092872 11.87559,10.797216 17.81899,2.828424 7.18623,2.742877 14.77124,4.994046 17.13091,13.68835 1.1905,5.714691 2.95746,11.197801 -4.32328,20.315691 l -5.86198,5.5662 -3.36938,-2.22454 c 1.85089,-4.09718 2.80953,-7.23158 3.69058,-10.28225 -1.65035,-6.02846 -3.12422,-12.05693 -5.36994,-18.085391 -1.19899,5.542521 -0.71581,10.682521 -0.012,15.769731 1.04655,5.17641 -1.83691,10.57656 -3.4605,15.904989 z"
       id="path416"
       sodipodi:nodetypes="ccccccccccccccccc" />
    <path
       style="fill:none;stroke:#ffffff;stroke-width:1.28612;stroke-linecap:round;stroke-linejoin:miter;stroke-dasharray:none;stroke-opacity:1"
       d="m 227.19684,160.90116 5.47776,2.2299 c -0.28756,4.82805 1.74885,10.07819 -3.09105,14.07946 -3.18645,-0.82432 -3.45963,-7.2685 -2.38671,-16.30936 z"
       id="path475"
       sodipodi:nodetypes="cccc" />
    <path
       style="fill:none;stroke:#ffffff;stroke-width:1.28612;stroke-linecap:round;stroke-linejoin:miter;stroke-dasharray:none;stroke-opacity:1"
       d="m 236.04989,157.50353 -3.26545,5.57369 -6.0155,-2.49265 c 0.0224,-2.18467 1.48213,-3.60191 2.55941,-5.22335"
       id="path477"
       sodipodi:nodetypes="cccc" />
    <path
       style="fill:none;stroke:#ffffff;stroke-width:1.28612;stroke-linecap:round;stroke-linejoin:miter;stroke-dasharray:none;stroke-opacity:1"
       d="m 238.52665,156.0868 c 1.35818,1.13273 3.96634,2.51345 4.58272,4.45834 l 0.53552,4.6306 0.93382,3.71912 c -0.52073,1.87292 0.20899,3.72565 -3.00181,5.64201 -1.89302,0.21633 -2.08446,-3.61378 -2.68361,-6.4743 -0.5927,-5.08423 -2.70425,-5.29535 -4.20438,-7.46816"
       id="path479"
       sodipodi:nodetypes="ccccccc" />
    <path
       style="fill:none;stroke:#ffffff;stroke-width:1.28612;stroke-linecap:round;stroke-linejoin:miter;stroke-dasharray:none;stroke-opacity:1"
       d="m 224.23945,105.43848 -6.90369,-6.614589 -3.01664,2.420009 c 0.91716,1.78073 2.40736,3.19653 4.04734,4.51695 2.64759,0.61166 5.19256,1.11635 5.87299,-0.32237 z"
       id="path420"
       sodipodi:nodetypes="ccccc" />
    <path
       style="fill:none;stroke:#ffffff;stroke-width:1.28612;stroke-linecap:round;stroke-linejoin:miter;stroke-dasharray:none;stroke-opacity:1"
       d="m 241.13159,97.681091 c -7.05836,1.51928 -9.09863,12.229959 -1.63794,6.882469 l 5.06411,-4.997289"
       id="path418"
       sodipodi:nodetypes="ccc" />
    <text
       xml:space="preserve"
       style="font-style:normal;font-weight:normal;font-size:84.7273px;line-height:1.25;font-family:sans-serif;fill:#ffffff;fill-opacity:1;stroke:none;stroke-width:2.11819;stroke-linecap:round"
       x="259.34109"
       y="135.47469"
       id="text696"
       transform="scale(0.99848509,1.0015172)"><tspan
         sodipodi:role="line"
         id="tspan694"
         x="259.34109"
         y="135.47469"
         style="font-style:normal;font-variant:normal;font-weight:normal;font-stretch:normal;font-family:Dyuthi;-inkscape-font-specification:Dyuthi;fill:#ffffff;fill-opacity:1;stroke-width:2.11819;stroke-linecap:round">nfused</tspan></text>
  </g>
</svg>
